<?xml version="1.0" encoding="UTF-8"?>
<svg xmlns="http://www.w3.org/2000/svg" width="144" height="50" viewBox="0 0 144 50" fill="none">
  <path d="M47.1607 49.6325C45.9245 49.6311 44.7102 49.3063 43.6385 48.6903C42.5667 48.0743 41.6748 47.1886 41.0514 46.1211L36.4023 38.126C35.0076 35.7393 33.0132 33.7587 30.617 32.3805C28.2208 31.0023 25.5059 30.2744 22.7416 30.269H9.25807L0 30.1789V6.82842C0.00238622 5.11591 0.68394 3.47427 1.89515 2.26363C3.10636 1.05299 4.74831 0.372195 6.46082 0.370605H38.8881C43.8757 0.370605 47.7666 1.60949 50.4517 4.0542C53.0887 6.45786 54.4257 10.2466 54.4257 15.3183C54.4257 19.6589 53.4402 23.0651 51.4963 25.4407C49.3577 27.9354 46.3602 29.536 43.0975 29.9255L40.6258 30.3412L52.5058 49.6325H47.1607ZM8.40177 23.9935L37.484 24.0716C39.717 24.1976 41.9122 23.4551 43.6103 21.9995C45.1126 20.5893 45.8747 18.3419 45.8747 15.3153C45.8747 12.2356 45.1096 9.9722 43.6003 8.5881C41.8953 7.16091 39.711 6.43616 37.491 6.56101H8.40177V23.9935ZM0 49.6876V30.4393C1.32087 30.672 2.59551 31.1164 3.77474 31.7553C6.70319 33.3868 8.25355 36.154 8.38174 39.9818L8.39476 49.6886L0 49.6876Z" fill="black"></path>
  <path d="M61.8811 49.6325V5.99418C61.8832 4.50259 62.4769 3.07274 63.5319 2.0183C64.5869 0.963868 66.0171 0.370953 67.5087 0.369629H70.2839V49.6325H61.8811Z" fill="black"></path>
  <path d="M106.47 50C97.5563 50 90.5967 47.8738 85.7854 43.6794C81.0402 39.5431 78.6345 33.2455 78.6345 24.9639C78.6345 16.7324 81.0382 10.4609 85.7854 6.32161C90.5997 2.12723 97.7325 0 106.986 0H114.874C124.127 0 131.258 2.12723 136.071 6.32161C140.816 10.4579 143.222 16.7294 143.222 24.9639C143.222 33.2485 140.818 39.5451 136.071 43.6794C131.264 47.8748 124.253 50 115.239 50H106.47ZM107.795 6.19742C101.023 6.19742 95.8687 7.6997 92.4716 10.6622C89.0103 13.6838 87.2556 18.4961 87.2556 24.9629C87.2556 31.4298 89.0083 36.2501 92.4635 39.2967C95.8597 42.2883 101.09 43.8036 108.01 43.8036H116.075C122.9 43.8036 126.057 42.2853 129.429 39.2907C132.859 36.2431 134.599 31.4218 134.599 24.9609C134.599 18.5001 132.857 13.6868 129.423 10.6642C126.051 7.7007 122.896 6.19742 116.075 6.19742H107.795Z" fill="black"></path>
</svg>
